<svg xmlns="http://www.w3.org/2000/svg" width="16.703" height="16.7" viewBox="0 0 16.703 16.7"><defs><style>.a{fill:#aaa6b0;stroke:#aaa6b0;stroke-width:0.7px;}</style></defs><g transform="translate(-5.708 -5.716)"><path class="a" d="M21.981,13.871,19.8,11.687V8.6a.273.273,0,0,0-.273-.273H16.436L14.252,6.143a.281.281,0,0,0-.386,0L11.682,8.326H8.594a.273.273,0,0,0-.273.273v3.088L6.138,13.871a.273.273,0,0,0,0,.386l2.184,2.184v3.088a.273.273,0,0,0,.273.273h3.088l2.183,2.184a.273.273,0,0,0,.386,0L16.436,19.8h3.088a.273.273,0,0,0,.273-.273V16.441l2.184-2.184A.273.273,0,0,0,21.981,13.871Zm-2.65,2.264a.273.273,0,0,0-.08.193v2.928H16.323a.274.274,0,0,0-.193.08l-2.07,2.071-2.07-2.071a.273.273,0,0,0-.193-.08H8.867V16.328a.274.274,0,0,0-.08-.193L6.717,14.064l2.071-2.071a.273.273,0,0,0,.08-.193V8.873H11.8a.274.274,0,0,0,.193-.08l2.07-2.071,2.07,2.071a.273.273,0,0,0,.193.08h2.928V11.8a.274.274,0,0,0,.08.193L21.4,14.064Zm-2.551-4.517-5.774,4.461a.273.273,0,1,0,.334.432l5.774-4.461a.273.273,0,0,0-.334-.432Zm-3.945,1.359a1.313,1.313,0,1,0-.929-.385A1.3,1.3,0,0,0,12.834,12.976Zm-.542-1.856a.767.767,0,1,1-.225.542A.762.762,0,0,1,12.292,11.121Zm2.992,4.032a1.314,1.314,0,1,0,.929.385A1.3,1.3,0,0,0,15.284,15.152Zm.542,1.855a.767.767,0,1,1,.225-.542A.762.762,0,0,1,15.826,17.008Z"/></g></svg>