<svg xmlns="http://www.w3.org/2000/svg" width="175.619" height="171.354" viewBox="0 0 175.619 171.354"><defs><style>.a{fill:#f8b3be;}.b{fill:#da5389;}.c{fill:#2f2e41;}.d{fill:#7554aa;}.e,.f{fill:#77afc6;}.e{opacity:0.72;}.g{opacity:0.2;}.h{fill:#3f3d56;}.i{fill:#270000;}.j{fill:#161411;}.k{fill:#fff;}.l{fill:#320202;}.m{fill:#741b1b;}.n{fill:#e4b56e;}.o{fill:#e677ab;}.p{fill:#ef8d8d;}.q{fill:#ffdbb7;}.r{fill:#fdaf19;}.s{fill:#e6e6e6;}.t{fill:#6dd05e;}.u{fill:#eee895;}.v{fill:#cbc4d4;}.w{fill:#da5959;}</style></defs><path class="a" d="M661.821,406.335l-1.854,4.327-11.374,15.083s-7.789,8.407-3.462,8.9,7.17-7.789,7.17-7.789l13.352-13.228,1.484-6.058Z" transform="translate(-544.387 -332.203)"/><path class="b" d="M707.77,340.168l-1.792.5s-8.047,21.376-7.305,23.972,4.08,5.81,5.563,5.563S707.77,340.168,707.77,340.168Z" transform="translate(-584.649 -283.591)"/><path class="c" d="M827.125,747.947s-.787,3.943,1.578,2.365a11.445,11.445,0,0,0,3.6-4.63Z" transform="translate(-678.964 -581.517)"/><path class="c" d="M671.776,418.916s-25.1,88.517-16.2,91.113,22.006-.247,21.882-1.978-2.349-35.975-2.349-35.975,12.981,45.495,29.052,34.863,12.486-12.61,11-13.352-23.86-35.975-23.736-42.528-.247-27.074-2.967-30.165Z" transform="translate(-551.622 -341.447)"/><path class="d" d="M239.766,644.472H87.455v-.5H239.871Z" transform="translate(-64.252 -473.118)"/><path class="c" d="M775.65,280.912a5.192,5.192,0,0,1-.645-7c-.1.1-.207.2-.3.308a5.192,5.192,0,1,0,7.7,6.965c.1-.108.189-.22.276-.334A5.192,5.192,0,0,1,775.65,280.912Z" transform="translate(-639.556 -234.914)"/><circle class="c" cx="10.694" cy="10.694" r="10.694" transform="translate(124.914 25.855)"/><path class="c" d="M668.089,760.936s-2.843,2.843,0,2.843a11.444,11.444,0,0,0,5.563-1.854Z" transform="translate(-561.286 -592.724)"/><path class="a" d="M743.917,283.477s1.854,7.665.495,9.148a13.734,13.734,0,0,1-4.327,2.6l.495,13.846s5.687-1.978,5.934-2.225,5.316-8.283,5.316-8.283l4.945-4.7s-7.541-3.585-5.316-9.767S743.917,283.477,743.917,283.477Z" transform="translate(-615.109 -240.252)"/><circle class="a" cx="6.429" cy="6.429" r="6.429" transform="translate(126.006 44.954) rotate(-80.783)"/><path class="b" d="M736.488,353.454s2.843-9.4,4.2-10.632,4.7-12.857,4.7-12.857-2.1-2.843-3.832-2.843-3.338.618-5.316,2.473a19.782,19.782,0,0,1-4.168,2.606,4.611,4.611,0,0,1-6.241-2.083,1.811,1.811,0,0,1-.1-1.76s-4.574,1.236-4.822,2.967,0,5.316-.371,6.058-1.484,1.854-.989,6.552a46.912,46.912,0,0,1-.516,10.638C723.653,358.979,730.051,356.259,736.488,353.454Z" transform="translate(-599.644 -274.006)"/><ellipse class="c" cx="5.44" cy="3.709" rx="5.44" ry="3.709" transform="translate(127.881 30.182)"/><circle class="c" cx="5.192" cy="5.192" r="5.192" transform="translate(137.4 23.259)"/><path class="c" d="M806.086,234.959a5.192,5.192,0,0,1-5.173-4.759c-.012.142-.019.286-.019.432a5.192,5.192,0,0,0,10.385,0v0c0-.146-.008-.29-.019-.433A5.192,5.192,0,0,1,806.086,234.959Z" transform="translate(-659.784 -202.799)"/><path class="d" d="M491.759,420.53h-1.918l-3.833,30.108,12.642-.382Z" transform="translate(-358.321 -308.958)"/><path class="e" d="M491.759,420.53h-1.918l-3.833,30.108,12.642-.382Z" transform="translate(-358.322 -308.958)"/><path class="f" d="M497.517,419.08l-2.109,30.3,25.839,1.918,2.109-29.535Z" transform="translate(-363.97 -307.893)"/><circle class="g" cx="0.385" cy="0.385" r="0.385" transform="translate(141.862 113.488)"/><circle class="g" cx="0.385" cy="0.385" r="0.385" transform="translate(149.917 114.445)"/><path class="h" d="M812.616,534.388h-.191c0-.082.135-8.172-4.51-8.917a2.443,2.443,0,0,0-2.223.616c-1.918,1.9-1.125,7.275-1.117,7.328l-.188.029c-.035-.226-.815-5.524,1.173-7.492a2.619,2.619,0,0,1,2.388-.671C812.754,526.049,812.619,534.306,812.616,534.388Z" transform="translate(-662.219 -419.555)"/><path class="a" d="M804.36,402.142l-.618,6.923,1.236,20.769s2.843,10.508-1.484,10.261-2.72-11-2.72-11L798.8,404.985Z" transform="translate(-658.244 -329.123)"/><path class="b" d="M795.639,331.315l3.214,1.731s4.327,29.409,1.854,32.253-7.541,3.956-7.789,2.843-1.113-23.723-1.113-23.723Z" transform="translate(-653.109 -277.087)"/><path class="i" d="M323.689,126.923h-3.605a.478.478,0,0,0-.478.478v1.582a.478.478,0,0,0,.478.478h.6v2.371h2.41v-2.371h.6a.478.478,0,0,0,.478-.478V127.4A.478.478,0,0,0,323.689,126.923Z" transform="translate(-306.188 -126.923)"/><path class="j" d="M318.11,148.106a18.536,18.536,0,0,1-3.225-10.99.391.391,0,0,0-.305-.39v-.684h-3.808v.674h-.052a.391.391,0,0,0-.39.391q0,.014,0,.028a16.916,16.916,0,0,1-3.039,11.25,1.077,1.077,0,0,0-.195.653l.416,12.879a1.115,1.115,0,0,0,1.105,1.076h8.613a1.115,1.115,0,0,0,1.106-1.1l.16-12.5a2.257,2.257,0,0,0-.388-1.289Z" transform="translate(-296.998 -133.623)"/><path class="k" d="M320.578,197.635h-7.5a.77.77,0,0,0-.761.887l1.133,7.363h6.5l1.376-7.339a.77.77,0,0,0-.756-.911Z" transform="translate(-300.83 -178.874)"/><path class="l" d="M474.961,272.339h-3.605a.478.478,0,0,0-.478.478V274.4a.478.478,0,0,0,.478.478h.6v2.371h2.41v-2.371h.6a.478.478,0,0,0,.478-.478v-1.582A.478.478,0,0,0,474.961,272.339Z" transform="translate(-417.326 -233.758)"/><path class="m" d="M469.382,293.522a18.535,18.535,0,0,1-3.225-10.99.391.391,0,0,0-.305-.39v-.684h-3.808v.674h-.052a.391.391,0,0,0-.39.391c0,.009,0,.019,0,.028a16.916,16.916,0,0,1-3.039,11.25,1.076,1.076,0,0,0-.195.653l.416,12.879a1.115,1.115,0,0,0,1.105,1.076H468.5a1.115,1.115,0,0,0,1.106-1.1l.16-12.5A2.257,2.257,0,0,0,469.382,293.522Z" transform="translate(-408.136 -240.458)"/><path class="k" d="M471.85,343.051h-7.5a.77.77,0,0,0-.761.887l1.133,7.363h6.5l1.376-7.339a.77.77,0,0,0-.756-.911Z" transform="translate(-411.968 -285.709)"/><path class="n" d="M451.354,421.658h-3.605a.478.478,0,0,0-.478.478v1.582a.478.478,0,0,0,.478.478h.6v2.371h2.41V424.2h.6a.478.478,0,0,0,.478-.478v-1.582A.478.478,0,0,0,451.354,421.658Z" transform="translate(-425.982 -343.461)"/><path class="o" d="M445.774,442.841a18.535,18.535,0,0,1-3.225-10.99.391.391,0,0,0-.305-.39v-.684h-3.807v.674h-.052a.391.391,0,0,0-.39.391c0,.01,0,.019,0,.028a16.916,16.916,0,0,1-3.039,11.25,1.077,1.077,0,0,0-.195.653l.416,12.879a1.115,1.115,0,0,0,1.105,1.076H444.9a1.115,1.115,0,0,0,1.106-1.1l.16-12.5A2.257,2.257,0,0,0,445.774,442.841Z" transform="translate(-416.792 -350.161)"/><path class="k" d="M448.243,492.37h-7.5a.77.77,0,0,0-.761.887l1.133,7.363h6.5L449,493.281a.77.77,0,0,0-.756-.911Z" transform="translate(-420.624 -395.412)"/><path class="p" d="M410.567,165l-22.252-.445c2.226-7.743,4.871-17.13,0-28.037h22.252C409.441,147.07,409.1,156.88,410.567,165Z" transform="translate(-357.228 -133.975)"/><circle class="k" cx="5.179" cy="5.179" r="5.179" transform="translate(37.545 10.832)"/><path class="q" d="M336.4,307.491H314.9c1.5-8.124,1.157-17.933,0-28.482H336.4C335.269,289.558,334.933,299.368,336.4,307.491Z" transform="translate(-302.734 -238.659)"/><path class="r" d="M5.179,0c1.067,0,.935.784,0,1.527-.918.739-3.506,1.858-3.506,3.652,0,2.86,6.366,5.179,3.506,5.179A5.179,5.179,0,0,1,5.179,0Z" transform="translate(17.866 48.636)"/><path class="s" d="M456.436,171.835H434.945c.868-4.7,14.268-17.693,14.093-23.625-.112-3.825-13.605-.406-14.093-4.858h21.491C455.31,153.9,454.974,163.712,456.436,171.835Z" transform="translate(-390.927 -138.994)"/><circle class="k" cx="5.179" cy="5.179" r="5.179" transform="translate(49.715 12.645)"/><path class="s" d="M456.436,166.955H434.945c2.34-6.34,3.2-15.512,0-28.482h21.491C455.31,149.022,454.974,158.832,456.436,166.955Z" transform="translate(-390.927 -135.409)"/><circle class="k" cx="5.179" cy="5.179" r="5.179" transform="translate(49.715 11.35)"/><path class="t" d="M456.436,171.835H434.945c.835-4.517,2.986-8.875,3.125-14.573.1-3.986-1.48-9.174-3.125-13.909h21.491c-.5,4.726-2.5,10.355-2.608,15C453.716,163.4,455.629,167.351,456.436,171.835Z" transform="translate(-390.927 -138.994)"/><path class="u" d="M1.805.1c2.86,0,4.078,1.549,4.078,4.409s1.264,3.532-1.6,3.532S1.193,6.985,1.193,4.125-1.055.1,1.805.1Z" transform="translate(49.715 9.645)"/><rect class="v" width="70.429" height="5" rx="2.5" transform="translate(0 29.475)"/><rect class="v" width="70.429" height="5" rx="2.5" transform="translate(0 68.056)"/><rect class="v" width="70.429" height="5" rx="2.5" transform="translate(0 106.637)"/><path class="w" d="M18.331,6.954,16.884,18.3H12L10.556,6.9h5.966L17.7,2.825l.668.2-1.131,3.92,1.092.008ZM9.865,13.516s.183-1.471-2.351-1.471H3.477c-2.531,0-2.351,1.471-2.351,1.471H9.865ZM1.126,16.826S.947,18.3,3.477,18.3H7.514c2.534,0,2.351-1.471,2.351-1.471H1.126Zm8.36-.735a.846.846,0,0,0,.75-.919.845.845,0,0,0-.75-.92H1.47a.846.846,0,0,0-.75.92.847.847,0,0,0,.75.919H9.486Z" transform="translate(38.247 88.12)"/><path class="u" d="M4.709.1C1.849.1.631,1.645.631,4.505s-1.264,3.532,1.6,3.532S5.322,6.985,5.322,4.125,7.569.1,4.709.1Z" transform="translate(55.715 16.645)"/><path class="r" d="M.752,0c-1.067,0-.935.784,0,1.527.918.739,3.506,1.858,3.506,3.652,0,2.86-6.366,5.179-3.506,5.179A5.179,5.179,0,1,0,.752,0Z" transform="translate(22.866 52.636)"/></svg>